<svg width="36" height="36" viewBox="0 0 36 36" fill="none" xmlns="http://www.w3.org/2000/svg">
<rect width="36" height="36" rx="10" fill="#FCFAF4" fill-opacity="0.2"/>
<g clip-path="url(#clip0_175_339)">
<g clip-path="url(#clip1_175_339)">
<path fill-rule="evenodd" clip-rule="evenodd" d="M15.032 24.4C21.0696 24.4 24.372 19.4752 24.372 15.204C24.372 15.064 24.372 14.9248 24.3624 14.7864C25.0036 14.3302 25.5581 13.7631 26 13.112C25.4004 13.3741 24.7652 13.5458 24.1152 13.6216C24.7974 13.221 25.3104 12.5857 25.5584 11.8344C24.9125 12.2112 24.2077 12.4763 23.4736 12.6184C22.8713 11.9925 22.0479 11.6274 21.1797 11.6013C20.3116 11.5751 19.4677 11.89 18.8288 12.4784C18.4112 12.8629 18.1033 13.3514 17.9364 13.894C17.7696 14.4365 17.7498 15.0137 17.8792 15.5664C16.5789 15.5043 15.3057 15.1721 14.1409 14.5908C12.9761 14.0096 11.9451 13.1921 11.1136 12.1904C10.6946 12.9019 10.5665 13.7477 10.7559 14.5514C10.9453 15.355 11.4377 16.0545 12.1304 16.504C11.6086 16.4892 11.0978 16.3507 10.64 16.1V16.1408C10.6408 17.68 11.7424 19.004 13.2736 19.3088C12.7902 19.4388 12.2837 19.4577 11.792 19.364C12.2216 20.6808 13.4544 21.5824 14.8584 21.6088C13.4773 22.6751 11.7324 23.1561 10 22.948C11.5062 23.8979 13.2512 24.4006 15.032 24.3976" fill="white"/>
</g>
</g>
<defs>
<clipPath id="clip0_175_339">
<rect width="16" height="16" fill="white" transform="translate(10 10)"/>
</clipPath>
<clipPath id="clip1_175_339">
<rect width="16" height="16" fill="white" transform="translate(10 10)"/>
</clipPath>
</defs>
</svg>
