<svg width="137" height="137" viewBox="0 0 137 137" fill="none" xmlns="http://www.w3.org/2000/svg">
<g clip-path="url(#clip0_153_134)">
<path d="M80.5632 38.0395C77.2673 38.301 73.4599 38.5625 69.6525 39.074C63.8222 39.8239 57.9918 40.847 53.1768 43.1237C43.7967 46.9465 37.4549 55.0651 37.4549 67.0027C37.4549 81.9939 47.0926 89.5971 59.2571 89.5971C63.3222 89.5971 66.6143 89.101 69.6525 88.3357C74.479 86.8127 78.5364 84.0168 83.3515 78.9479C86.1474 82.7553 86.9012 84.536 91.7239 88.5972C92.9892 89.1087 94.2545 89.1087 95.2698 88.3434C98.3119 85.809 103.631 81.2362 106.427 78.698C107.688 77.6711 107.438 76.1597 106.68 74.8829C103.885 71.3293 101.104 68.2757 101.104 61.43V38.574C101.104 28.9094 101.854 20.0293 94.7698 13.4336C88.9318 8.08402 79.8056 6.06494 72.7138 6.06494C71.6985 6.06494 70.687 6.06494 69.6679 6.06494C56.7381 6.82258 43.0506 12.3991 40.0009 28.4133C39.5009 30.4323 41.0277 31.2054 42.0392 31.463L56.2343 33.2475C57.7572 32.9783 58.5149 31.7169 58.7648 30.44C60.0455 24.8674 64.6029 22.0714 69.6717 21.5599C69.9294 21.5599 70.1832 21.5599 70.6909 21.5599C73.7291 21.5599 77.0212 22.8368 78.8018 25.3558C80.8132 28.4133 80.5747 32.4822 80.5747 36.0281L80.5632 38.0395ZM77.775 68.2603C76.002 71.8177 72.9561 74.1021 69.6602 74.8675C69.1564 74.8675 68.4026 75.129 67.6373 75.129C62.0607 75.129 58.7533 70.8101 58.7533 64.4567C58.7533 56.3419 63.576 52.5192 69.6602 50.7462C72.9561 49.9886 76.7635 49.7271 80.567 49.7271V52.7768C80.5632 58.6225 80.8016 63.1876 77.775 68.2603ZM136.213 103.523V104.35C136.078 109.315 133.459 118.841 127.26 124.083C126.021 125.044 124.779 124.495 125.325 123.106C127.129 118.703 131.252 108.48 129.325 106.138C127.96 104.35 122.302 104.484 117.484 104.9C115.284 105.177 113.349 105.304 111.834 105.604C110.461 105.731 110.176 104.5 111.561 103.538C113.353 102.296 115.288 101.335 117.487 100.631C125.329 98.2926 134.432 99.6695 135.674 101.192C135.944 101.585 136.213 102.412 136.213 103.523ZM123.129 113.176C121.337 114.549 119.418 115.799 117.484 116.918C103.019 125.614 84.2898 130.152 68.0411 130.152C41.8623 130.152 18.4486 120.491 0.684582 104.35C-0.838381 103.104 0.403834 101.315 2.19601 102.277C21.3407 113.453 45.0313 120.222 69.5486 120.222C84.9821 120.222 101.631 117.322 117.48 111.103C118.576 110.703 119.818 110.134 120.922 109.734C123.402 108.615 125.61 111.396 123.129 113.176Z" fill="black"/>
</g>
<defs>
<clipPath id="clip0_153_134">
<rect width="136.213" height="136.213" fill="white"/>
</clipPath>
</defs>
</svg>
