<svg width="173" height="212" viewBox="0 0 173 212" fill="none" xmlns="http://www.w3.org/2000/svg">
<g clip-path="url(#clip0_153_449)">
<path d="M167.495 72.2708C166.263 73.2248 144.5 85.4572 144.5 112.657C144.5 144.118 172.192 155.248 173.021 155.523C172.894 156.202 168.622 170.766 158.42 185.606C149.324 198.665 139.824 211.703 125.372 211.703C110.92 211.703 107.2 203.329 90.5168 203.329C74.2582 203.329 68.4774 211.979 55.258 211.979C42.0386 211.979 32.8147 199.895 22.2095 185.055C9.92518 167.628 0 140.556 0 114.862C0 73.6488 26.8639 51.7916 53.3027 51.7916C67.351 51.7916 79.0614 60.9924 87.8815 60.9924C96.2764 60.9924 109.368 51.2404 125.351 51.2404C131.408 51.2404 153.171 51.7916 167.495 72.2708ZM117.763 33.7928C124.373 25.97 129.049 15.1156 129.049 4.2612C129.049 2.756 128.921 1.2296 128.645 0C117.891 0.4028 105.096 7.1444 97.3816 16.0696C91.3245 22.9384 85.6711 33.7928 85.6711 44.7956C85.6711 46.4492 85.9474 48.1028 86.0749 48.6328C86.755 48.76 87.8602 48.9084 88.9654 48.9084C98.6143 48.9084 110.75 42.4636 117.763 33.7928Z" fill="black"/>
</g>
<defs>
<clipPath id="clip0_153_449">
<rect width="173" height="212" fill="white"/>
</clipPath>
</defs>
</svg>
