<svg width="137" height="137" viewBox="0 0 137 137" fill="none" xmlns="http://www.w3.org/2000/svg">
<mask id="mask0_153_41" style="mask-type:luminance" maskUnits="userSpaceOnUse" x="1" y="1" width="134" height="135">
<path d="M1.34656 1.74536H134.845V135.244H1.34656V1.74536Z" fill="white"/>
</mask>
<g mask="url(#mask0_153_41)">
<path d="M83.5321 47.8682L87.824 33.4229L92.2199 47.8682H83.5321ZM104.937 60.486L93.6689 26.3968C93.4191 25.6433 93.1319 25.1521 92.8114 24.919C92.4908 24.6901 91.9704 24.5694 91.2586 24.5694H85.0353C84.3193 24.5694 83.7906 24.6984 83.4492 24.9482C83.112 25.1938 82.8331 25.6809 82.6208 26.3969L71.2478 60.486C71.1021 60.665 71.0314 61.0188 71.0314 61.5558C71.0314 62.38 71.5351 62.7879 72.5342 62.7879H77.2007C77.6336 62.7879 77.9791 62.7713 78.2455 62.738C78.5161 62.7006 78.7285 62.6089 78.8909 62.4674C79.0532 62.3259 79.1947 62.1094 79.3196 61.8263C79.4444 61.5349 79.5777 61.1603 79.7234 60.6982L81.4926 54.737H94.3139L96.1372 60.5899C96.2829 61.0894 96.4244 61.4849 96.566 61.7722C96.7075 62.0553 96.8698 62.2801 97.0489 62.4424C97.2279 62.6006 97.4402 62.7005 97.6941 62.738C97.9397 62.7712 98.2644 62.7879 98.6599 62.7879H103.647C104.646 62.7879 105.15 62.38 105.15 61.5558C105.15 61.306 105.141 61.1354 105.125 61.0479C105.104 60.9564 105.042 60.769 104.937 60.486ZM99.4051 74.2066H95.8084C94.8801 74.2066 94.264 74.344 93.9601 74.6104C93.6562 74.881 93.5063 75.4264 93.5063 76.2465V96.4817L82.8827 76.1921C82.454 75.3346 82.0335 74.7892 81.6214 74.5561C81.2093 74.3229 80.4849 74.2064 79.4483 74.2064H76.1222C75.1939 74.2064 74.5737 74.3438 74.2698 74.6102C73.9701 74.8808 73.816 75.4261 73.816 76.2462V110.385C73.816 111.214 73.9576 111.755 74.2448 112.026C74.5321 112.292 75.1398 112.425 76.0681 112.425H79.7189C80.6472 112.425 81.2633 112.292 81.5672 112.026C81.8711 111.755 82.021 111.214 82.021 110.385V90.0958L92.6446 110.44C93.0733 111.301 93.4938 111.847 93.9059 112.076C94.318 112.313 95.0423 112.425 96.0789 112.425H99.4051C100.333 112.425 100.949 112.292 101.253 112.026C101.557 111.755 101.711 111.214 101.711 110.386V76.2465C101.711 75.4264 101.557 74.8811 101.253 74.6104C100.949 74.344 100.333 74.2066 99.4051 74.2066ZM117.222 70.9763L126.485 80.2345V126.879H9.71751V80.2312L18.9673 70.9773C20.3369 69.6076 20.3369 67.3889 18.9673 66.0236L9.71751 56.7696V10.1171H126.485V56.7621L117.222 66.0202C115.853 67.3899 115.853 69.6086 117.222 70.9781M134.852 1.75024H1.35355V60.787L9.06733 68.5008L1.35355 76.2145V135.248H134.852V76.2145L127.138 68.5008L134.852 60.787V1.75024ZM60.7036 104.48H45.6263L61.5029 82.155C61.7527 81.797 61.915 81.5098 61.99 81.2933C62.0607 81.081 62.0941 80.8313 62.0941 80.544V76.2481C62.0941 75.428 61.9442 74.8827 61.6403 74.612C61.3323 74.3456 60.712 74.2082 59.7796 74.2082H36.8545C36.0261 74.2082 35.4892 74.3622 35.2394 74.6619C34.9855 74.97 34.8606 75.6027 34.8606 76.5727V79.7906C34.8606 80.7563 34.9855 81.3932 35.2394 81.6971C35.4892 82.001 36.0262 82.1551 36.8545 82.1551H51.0037L35.3434 104.48C34.948 104.984 34.7481 105.488 34.7481 105.983V110.387C34.7481 111.216 34.9022 111.757 35.2102 112.027C35.5099 112.294 36.1302 112.427 37.0668 112.427H60.7037C61.5321 112.427 62.0691 112.277 62.3231 111.973C62.5728 111.669 62.6977 111.037 62.6977 110.067V106.845C62.6977 105.879 62.5728 105.246 62.3231 104.942C62.0691 104.634 61.532 104.48 60.7036 104.48ZM53.6852 47.5449C53.6852 49.0144 53.5895 50.2423 53.3897 51.2248C53.194 52.2072 52.8735 53.0065 52.4239 53.6143C51.9785 54.2179 51.3915 54.6466 50.6546 54.9005C49.922 55.1503 49.0186 55.2752 47.9487 55.2752H43.5486V32.0838H47.9487C49.9844 32.0838 51.4497 32.6874 52.3447 33.8821C53.2397 35.081 53.6851 37.0625 53.6851 39.8183L53.6852 47.5449ZM61.3573 32.0338C60.1042 29.4904 58.3976 27.613 56.237 26.3973C54.0681 25.1777 51.3457 24.5699 48.0529 24.5699H37.0593C36.1268 24.5699 35.5107 24.7073 35.2068 24.9737C34.9029 25.2443 34.7489 25.7896 34.7489 26.6097V60.7532C34.7489 61.5774 34.9029 62.1185 35.2068 62.3892C35.5107 62.6556 36.1268 62.7888 37.0593 62.7888H49.3935C55.2257 62.7888 59.2136 60.3037 61.3579 55.3291C61.8575 54.1843 62.2071 53.0312 62.4028 51.8656C62.6026 50.7042 62.6984 49.2263 62.6984 47.4404V40.193C62.6984 38.1531 62.6026 36.5421 62.4028 35.3598C62.2071 34.1776 61.8568 33.0704 61.3573 32.0338Z" fill="#0C0C1C"/>
</g>
</svg>
