<svg width="173" height="212" viewBox="0 0 173 212" fill="none" xmlns="http://www.w3.org/2000/svg">
<path d="M81.4612 102.424L10.6545 172.746C11.4674 175.406 12.9063 177.856 14.8628 179.912C16.8193 181.969 19.2424 183.577 21.9498 184.617C24.6571 185.657 27.578 186.102 30.4927 185.917C33.4074 185.732 36.2398 184.922 38.7767 183.549L118.447 140.536L81.4612 102.424Z" fill="#EA4335"/>
<path d="M153.059 90.4703L118.606 71.7644L79.8256 104.024L118.764 140.436L152.954 121.93C155.138 120.854 157.075 119.38 158.656 117.592C160.237 115.804 161.429 113.737 162.165 111.511C162.9 109.285 163.164 106.942 162.942 104.619C162.719 102.296 162.015 100.037 160.868 97.9726C159.08 94.7788 156.323 92.1658 152.954 90.4703H153.059Z" fill="#FBBC04"/>
<path d="M10.6545 39.3042C10.2332 40.8054 10.0204 42.3522 10.0214 43.9056V168.144C10.0204 169.698 10.2332 171.245 10.6545 172.746L83.8883 104.224L10.6545 39.3042Z" fill="#4285F4"/>
<path d="M81.9889 106.025L118.606 71.7646L39.0405 28.5511C36.0463 26.8915 32.6425 26.0115 29.174 26.0003C24.9846 25.9924 20.9074 27.2833 17.5638 29.6762C14.2203 32.0691 11.7939 35.4328 10.6545 39.2544L81.9889 106.025Z" fill="#34A853"/>
</svg>
