<svg width="112" height="137" viewBox="0 0 112 137" fill="none" xmlns="http://www.w3.org/2000/svg">
<g clip-path="url(#clip0_153_232)">
<path fill-rule="evenodd" clip-rule="evenodd" d="M109.62 96.0675C107.471 99.4347 102.204 101.837 102.204 101.837L63.0273 119.309V106.424L91.859 93.6686C95.1308 92.2131 95.6332 90.1556 92.9738 89.0756C90.3193 87.9925 85.5128 88.3028 82.2384 89.7645L63.0273 98.1654V84.7929L64.1346 84.3274C64.1346 84.3274 69.686 81.8881 77.4919 80.8143C85.2978 79.7468 94.8559 80.9602 102.359 84.4918C110.815 87.8094 111.767 92.7003 109.62 96.0675ZM66.7565 74.1265V41.1746C66.7565 37.3047 66.1817 33.742 63.2573 32.7334C61.0177 31.8427 59.628 34.4247 59.628 38.2915V120.811L41.7041 113.748V15.3574C49.3251 17.1139 60.4278 21.2663 66.3966 23.7645C81.5761 30.2351 86.7225 38.2884 86.7225 56.434C86.7225 74.1203 77.9293 80.8236 66.7565 74.1265ZM8.81569 105.077C0.134939 102.042 -1.30977 95.7168 2.64693 92.0735C6.3037 88.7094 12.5224 86.177 12.5224 86.177L38.2223 74.831V87.7659L19.7285 95.9837C16.4617 97.4392 15.9593 99.4999 18.6137 100.58C21.2707 101.66 26.0797 101.353 29.3516 99.894L38.2223 95.8968V107.469C37.6599 107.594 37.0325 107.718 36.4526 107.839C27.5794 109.639 18.1288 108.888 8.81569 105.077ZM103.912 110.2C105.034 110.2 106.086 110.74 106.878 111.737C107.671 112.717 108.108 114.027 108.108 115.417C108.108 116.814 107.671 118.117 106.878 119.098C106.086 120.088 105.034 120.628 103.912 120.628C102.789 120.628 101.74 120.088 100.945 119.098C100.152 118.117 99.7174 116.814 99.7174 115.417C99.7174 112.543 101.597 110.2 103.912 110.2ZM100.422 115.417C100.422 116.575 100.785 117.664 101.445 118.477C102.102 119.303 102.982 119.75 103.912 119.75C105.839 119.75 107.401 117.807 107.401 115.417C107.401 114.257 107.041 113.167 106.379 112.351C105.721 111.526 104.841 111.082 103.912 111.082C102.982 111.082 102.102 111.526 101.445 112.351C100.785 113.167 100.422 114.257 100.422 115.417ZM105.179 112.609C105.639 112.86 105.871 113.344 105.871 114.033C105.871 114.387 105.811 114.685 105.689 114.918C105.601 115.085 105.476 115.222 105.336 115.34C105.446 115.42 105.544 115.517 105.616 115.628C105.716 115.79 105.774 116.047 105.781 116.398L105.804 117.14C105.811 117.338 105.821 117.49 105.846 117.583C105.871 117.72 105.919 117.807 105.979 117.835L106.041 117.872V117.956V118.083V118.21H105.939H105.196H105.136L105.106 118.145C105.081 118.083 105.064 118.012 105.046 117.919C105.034 117.835 105.021 117.689 105.014 117.466L104.976 116.544C104.966 116.224 104.879 116.026 104.714 115.92C104.611 115.861 104.441 115.833 104.211 115.833H102.939V118.083V118.21H102.834H102.229H102.127V118.083V112.537V112.41H102.229H104.296C104.651 112.41 104.949 112.475 105.179 112.609ZM102.939 114.946H104.234C104.494 114.946 104.701 114.887 104.849 114.766C104.984 114.644 105.049 114.424 105.049 114.104C105.049 113.757 104.956 113.53 104.761 113.409C104.654 113.344 104.504 113.307 104.314 113.307H102.939V114.946Z" fill="black"/>
</g>
<defs>
<clipPath id="clip0_153_232">
<rect width="111.155" height="136.213" fill="white"/>
</clipPath>
</defs>
</svg>
