<svg width="212" height="212" viewBox="0 0 212 212" fill="none" xmlns="http://www.w3.org/2000/svg">
<path d="M5.88709 136.013C18.7832 179.013 58.6686 210.369 105.866 210.369C163.507 210.369 210.236 163.641 210.236 106C210.236 48.3589 163.507 1.63086 105.866 1.63086C50.5571 1.63086 5.29675 44.6603 1.72211 99.0661C8.48654 110.406 11.1121 117.422 5.88057 136.013H5.88709Z" fill="url(#paint0_linear_153_414)"/>
<path d="M100.488 79.8588L100.498 80.3741L74.9599 117.474C70.8243 117.285 66.6756 118.012 62.7357 119.633C61.0206 120.33 59.3831 121.205 57.8499 122.242L1.76774 99.128C1.76774 99.128 0.469651 120.478 5.87728 136.388L45.5245 152.748C47.4815 161.645 53.6132 169.447 62.6215 173.198C69.7087 176.142 77.6748 176.154 84.7704 173.229C91.866 170.305 97.5109 164.684 100.465 157.601C102.041 153.828 102.802 149.764 102.696 145.677L139.202 119.568L140.099 119.584C161.968 119.584 179.743 101.757 179.743 79.8588C179.743 57.9608 162.001 40.1985 140.099 40.1528C118.241 40.1528 100.455 57.9608 100.455 79.8588H100.488ZM94.3563 155.037C89.614 166.453 76.5287 171.824 65.1557 167.085C60.1089 164.964 56.0181 161.062 53.6621 156.12L66.568 161.469C68.5617 162.299 70.6994 162.728 72.8589 162.731C75.0184 162.735 77.1575 162.313 79.1538 161.489C81.1502 160.665 82.9647 159.457 84.4936 157.932C86.0226 156.406 87.2361 154.595 88.0648 152.601C89.7428 148.571 89.7527 144.041 88.0924 140.004C86.432 135.967 83.2372 132.754 79.2097 131.071L65.8374 125.543C70.9841 123.586 76.8353 123.521 82.3082 125.794C87.8528 128.087 92.0928 132.405 94.3628 137.927C96.6328 143.449 96.6198 149.538 94.3302 155.037M140.135 106.326C133.128 106.307 126.413 103.512 121.463 98.5521C116.512 93.5924 113.729 86.8729 113.723 79.8653C113.731 72.8589 116.515 66.1411 121.465 61.1828C126.415 56.2246 133.129 53.43 140.135 53.411C147.143 53.4282 153.858 56.2221 158.81 61.1805C163.761 66.139 166.546 72.8578 166.554 79.8653C166.548 86.874 163.764 93.5945 158.812 98.5544C153.86 103.514 147.144 106.309 140.135 106.326ZM120.344 79.8229C120.34 74.5578 122.426 69.5064 126.145 65.7788C129.863 62.0512 134.909 59.9525 140.174 59.9438C151.117 59.9438 160.018 68.8479 160.018 79.8229C160.02 85.0892 157.931 90.1409 154.21 93.8674C150.489 97.594 145.441 99.6903 140.174 99.6955C134.91 99.6877 129.864 97.5902 126.145 93.864C122.426 90.1377 120.342 85.0875 120.344 79.8229Z" fill="white"/>
<defs>
<linearGradient id="paint0_linear_153_414" x1="10427.4" y1="1.63086" x2="10427.4" y2="20875.5" gradientUnits="userSpaceOnUse">
<stop stop-color="#111D2E"/>
<stop offset="0.212" stop-color="#051839"/>
<stop offset="0.407" stop-color="#0A1B48"/>
<stop offset="0.581" stop-color="#132E62"/>
<stop offset="0.738" stop-color="#144B7E"/>
<stop offset="0.873" stop-color="#136497"/>
<stop offset="1" stop-color="#1387B8"/>
</linearGradient>
</defs>
</svg>
