<svg width="16" height="16" viewBox="0 0 16 16" fill="none" xmlns="http://www.w3.org/2000/svg">
<path d="M1.33333 1.3335H2.49334C3.21334 1.3335 3.78 1.9535 3.72 2.66683L3.16667 9.30682C3.07333 10.3935 3.93333 11.3268 5.02666 11.3268H12.1267C13.0867 11.3268 13.9267 10.5402 14 9.58683L14.36 4.58683C14.44 3.48017 13.6 2.58016 12.4867 2.58016H3.88" stroke="#171717" stroke-miterlimit="10" stroke-linecap="round" stroke-linejoin="round"/>
<path d="M10.8333 14.6667C11.2936 14.6667 11.6667 14.2936 11.6667 13.8333C11.6667 13.3731 11.2936 13 10.8333 13C10.3731 13 10 13.3731 10 13.8333C10 14.2936 10.3731 14.6667 10.8333 14.6667Z" stroke="#171717" stroke-miterlimit="10" stroke-linecap="round" stroke-linejoin="round"/>
<path d="M5.5 14.6667C5.96024 14.6667 6.33333 14.2936 6.33333 13.8333C6.33333 13.3731 5.96024 13 5.5 13C5.03976 13 4.66667 13.3731 4.66667 13.8333C4.66667 14.2936 5.03976 14.6667 5.5 14.6667Z" stroke="#171717" stroke-miterlimit="10" stroke-linecap="round" stroke-linejoin="round"/>
<path d="M6 5.3335H14" stroke="#171717" stroke-width="1.5" stroke-miterlimit="10" stroke-linecap="round" stroke-linejoin="round"/>
</svg>
