<svg width="16" height="16" viewBox="0 0 16 16" fill="none" xmlns="http://www.w3.org/2000/svg">
<path d="M8.10666 7.24683C8.03999 7.24016 7.95999 7.24016 7.88666 7.24683C6.29999 7.1935 5.03999 5.8935 5.03999 4.2935C5.03999 2.66016 6.35999 1.3335 7.99999 1.3335C9.63333 1.3335 10.96 2.66016 10.96 4.2935C10.9533 5.8935 9.69333 7.1935 8.10666 7.24683Z" stroke="white" stroke-linecap="round" stroke-linejoin="round"/>
<path d="M4.77334 9.7065C3.16001 10.7865 3.16001 12.5465 4.77334 13.6198C6.60667 14.8465 9.61334 14.8465 11.4467 13.6198C13.06 12.5398 13.06 10.7798 11.4467 9.7065C9.62001 8.4865 6.61334 8.4865 4.77334 9.7065Z" stroke="white" stroke-linecap="round" stroke-linejoin="round"/>
</svg>
